<svg width="16" height="14" viewBox="0 0 16 14" fill="none" xmlns="http://www.w3.org/2000/svg">
<path id="download" d="M7.9947 10.0126C7.87726 10.0126 7.76803 9.99151 7.66703 9.94932C7.56603 9.90731 7.47333 9.84411 7.38895 9.75973L4.03607 6.40685C3.89141 6.26384 3.82009 6.09635 3.8221 5.90438C3.82429 5.71242 3.90036 5.54055 4.05032 5.38877C4.21087 5.23717 4.3831 5.16311 4.56703 5.16658C4.75114 5.17005 4.91908 5.24767 5.07087 5.39945L7.28785 7.64384V0.712329C7.28785 0.510137 7.35552 0.340912 7.49087 0.204657C7.62603 0.0682184 7.79388 0 7.99443 0C8.19498 0 8.36475 0.0682184 8.50374 0.204657C8.64292 0.340912 8.71251 0.510137 8.71251 0.712329V7.64384L10.9569 5.39945C11.0955 5.2548 11.2602 5.18347 11.4509 5.18548C11.6414 5.18767 11.8169 5.26457 11.9774 5.41616C12.1274 5.56795 12.2006 5.73763 12.1972 5.92521C12.1937 6.11279 12.1161 6.28247 11.9643 6.43425L8.61141 9.75973C8.51972 9.84411 8.42338 9.90731 8.32237 9.94932C8.22137 9.99151 8.11214 10.0126 7.9947 10.0126ZM2.41196 14C1.91826 14 1.50246 13.8297 1.16456 13.489C0.826665 13.1484 0.657715 12.7314 0.657715 12.2381V11.294C0.657715 11.0918 0.725386 10.9226 0.860729 10.7863C0.995888 10.6499 1.16374 10.5816 1.36429 10.5816C1.56484 10.5816 1.73461 10.6499 1.87361 10.7863C2.01278 10.9226 2.08237 11.0918 2.08237 11.294V12.2381C2.08237 12.3225 2.11753 12.3997 2.18785 12.4699C2.25799 12.5402 2.33525 12.5753 2.41963 12.5753H13.5807C13.6651 12.5753 13.7424 12.5402 13.8125 12.4699C13.8828 12.3997 13.918 12.3225 13.918 12.2381V11.294C13.918 11.0918 13.9856 10.9226 14.1207 10.7863C14.2561 10.6499 14.424 10.5816 14.6246 10.5816C14.8251 10.5816 14.9949 10.6499 15.1339 10.7863C15.2731 10.9226 15.3426 11.0918 15.3426 11.294V12.2381C15.3426 12.7314 15.1722 13.1484 14.8314 13.489C14.4906 13.8297 14.0733 14 13.5796 14H2.41196Z" fill="#1C1B1F"/>
</svg>
