<?xml version="1.0" encoding="utf-8"?>
<!-- Generator: Adobe Illustrator 24.0.1, SVG Export Plug-In . SVG Version: 6.00 Build 0)  -->
<svg version="1.1" id="레이어_1" xmlns="http://www.w3.org/2000/svg" xmlns:xlink="http://www.w3.org/1999/xlink" x="0px"
	 y="0px" viewBox="0 0 15 17.7" style="enable-background:new 0 0 15 17.7;" xml:space="preserve">
<style type="text/css">
	.st0{fill:#3E3A39;}
</style>
<title>ico_pwd</title>
<g id="레이어_2_1_">
	<g id="title">
		<path class="st0" d="M12.7,7.1V5.2c0-2.9-2.3-5.2-5.2-5.2S2.3,2.3,2.3,5.2v1.9H0v7.9c0,1.5,1.2,2.8,2.8,2.8c0,0,0,0,0,0h9.5
			c1.5,0,2.8-1.2,2.8-2.8v0V7.1H12.7z M4.9,5.2c0-1.4,1.2-2.6,2.6-2.6c1.4,0,2.6,1.2,2.6,2.6c0,0,0,0,0,0v1.9H4.9V5.2z M7.5,14.2
			c-1.1,0-2-0.9-2-2s0.9-2,2-2s2,0.9,2,2C9.5,13.3,8.6,14.2,7.5,14.2C7.5,14.2,7.5,14.2,7.5,14.2L7.5,14.2z"/>
	</g>
</g>
</svg>
