<svg width="20" height="20" viewBox="0 0 20 20" fill="none" xmlns="http://www.w3.org/2000/svg">
<g id="Group 70">
<path id="Vector" d="M9.99999 13.1143C12.3099 13.1143 14.1825 11.2417 14.1825 8.93175C14.1825 6.6218 12.3099 4.74921 9.99999 4.74921C7.69003 4.74921 5.81744 6.6218 5.81744 8.93175C5.81744 11.2417 7.69003 13.1143 9.99999 13.1143Z" fill="#222222" stroke="#222222" stroke-width="0.5" stroke-miterlimit="10" stroke-linecap="round" stroke-linejoin="round"/>
<ellipse id="Ellipse 1" cx="10" cy="16" rx="5" ry="3" fill="#222222"/>
<g id="Vector_2">
<path d="M4.2171 16.57C5.32737 14.5123 7.50292 13.1143 10.0052 13.1143C12.4734 13.1143 14.6236 14.4746 15.7475 16.4865" fill="#222222"/>
<path d="M4.2171 16.57C5.32737 14.5123 7.50292 13.1143 10.0052 13.1143C12.4734 13.1143 14.6236 14.4746 15.7475 16.4865" stroke="#222222" stroke-width="0.5" stroke-miterlimit="10" stroke-linecap="round" stroke-linejoin="round"/>
</g>
<path id="Vector_3" d="M10 19C14.9706 19 19 14.9706 19 10C19 5.02944 14.9706 1 10 1C5.02944 1 1 5.02944 1 10C1 14.9706 5.02944 19 10 19Z" stroke="#222222" stroke-width="2" stroke-miterlimit="10" stroke-linecap="round" stroke-linejoin="round"/>
</g>
</svg>
