<svg width="16" height="20" viewBox="0 0 16 20" fill="none" xmlns="http://www.w3.org/2000/svg">
<g id="Group 63">
<g id="Vector">
<path d="M5.98745 14.0891C3.11924 13.3511 1 10.7478 1 7.64923C1 3.97699 3.97699 1 7.64923 1C11.3215 1 14.2985 3.97699 14.2985 7.64923C14.2985 10.7823 12.1316 13.4091 9.21499 14.1131" fill="white"/>
<path d="M5.98745 14.0891C3.11924 13.3511 1 10.7478 1 7.64923C1 3.97699 3.97699 1 7.64923 1C11.3215 1 14.2985 3.97699 14.2985 7.64923C14.2985 10.7823 12.1316 13.4091 9.21499 14.1131" stroke="white" stroke-width="2" stroke-miterlimit="10" stroke-linecap="round" stroke-linejoin="round"/>
</g>
<path id="Vector_2" d="M11.2254 14.7091C11.2254 14.3799 10.9587 14.1131 10.6294 14.1131H4.66903C4.33976 14.1131 4.073 14.3799 4.073 14.7091V17.0933C4.073 17.4225 4.33976 17.6893 4.66903 17.6893H10.6294C10.9587 17.6893 11.2254 17.4225 11.2254 17.0933V14.7091Z" stroke="white" stroke-width="2" stroke-miterlimit="10" stroke-linecap="round" stroke-linejoin="round"/>
<path id="Vector_3" d="M8.75753 17.8917C8.75753 18.5037 8.26149 19 7.64923 19C7.03697 19 6.54094 18.504 6.54094 17.8917" stroke="white" stroke-width="2" stroke-miterlimit="10" stroke-linecap="round" stroke-linejoin="round"/>
<path id="Vector_4" d="M11.7244 7.237C11.7244 5.38267 10.2281 3.87408 8.38863 3.87408" stroke="#222222" stroke-width="2" stroke-miterlimit="10" stroke-linecap="round" stroke-linejoin="round"/>
</g>
</svg>
