<svg width="16" height="14" viewBox="0 0 16 14" fill="none" xmlns="http://www.w3.org/2000/svg">
<path id="Vector" d="M8.58415 0.385301L10.1724 4.1608C10.2634 4.37744 10.4695 4.52546 10.706 4.54409L14.8286 4.87085C15.3895 4.91532 15.617 5.60735 15.1896 5.96947L12.0486 8.62963C11.8684 8.78231 11.7898 9.02159 11.8449 9.24987L12.8044 13.2274C12.935 13.7687 12.3393 14.1964 11.8593 13.9063L8.32982 11.7749C8.12738 11.6525 7.87262 11.6525 7.67018 11.7749L4.14074 13.9063C3.66046 14.1964 3.06499 13.7685 3.19565 13.2274L4.15535 9.24987C4.21041 9.0218 4.13163 8.78231 3.95164 8.62963L0.810568 5.96947C0.383232 5.60757 0.610665 4.91532 1.17162 4.87085L5.29421 4.54409C5.53075 4.52525 5.73679 4.37744 5.82785 4.1608L7.41606 0.385301C7.63185 -0.128434 8.36794 -0.128434 8.58415 0.385301Z" fill="#555555"/>
</svg>
