<svg width="94" height="18" viewBox="0 0 94 18" fill="none" xmlns="http://www.w3.org/2000/svg">
<g clip-path="url(#clip0_788_1386)">
<g clip-path="url(#clip1_788_1386)">
<path fill-rule="evenodd" clip-rule="evenodd" d="M8.70365 0.00825129C6.87737 0.110851 5.24524 0.638057 3.82936 1.58198C2.91859 2.18811 2.10253 3.00575 1.48693 3.93073C0.318864 5.6844 -0.186244 7.87215 0.0615747 10.1025C0.222578 11.5389 0.700852 12.8853 1.45851 14.0329C2.81283 16.0833 4.97059 17.4455 7.53559 17.8701C8.17645 17.9759 8.67997 18.009 9.44237 17.998C10.0375 17.9901 10.2947 17.9711 10.7951 17.8985C13.3869 17.5276 15.611 16.1749 16.9969 14.1276C17.8777 12.8254 18.3859 11.3163 18.498 9.67159C18.5296 9.19016 18.5154 8.42934 18.4649 7.9637C18.1302 4.86044 16.3766 2.31912 13.6442 0.979005C12.5614 0.448642 11.4107 0.137685 10.1353 0.0319282C9.78963 0.00193744 9.02092 -0.00911179 8.70365 0.00825129ZM9.96958 3.48718C11.0855 3.63556 11.9726 4.00965 12.7761 4.67261C12.9781 4.83992 13.3254 5.1935 13.4943 5.40659C13.7863 5.77279 14.0688 6.2558 14.2504 6.69777C14.7791 7.98737 14.8328 9.55479 14.394 10.9059C13.8747 12.5018 12.6861 13.7188 11.1219 14.2554C9.81804 14.7021 8.29641 14.6501 7.04311 14.1181C5.40624 13.422 4.25712 11.9525 3.93038 10.1341C3.8562 9.72052 3.84199 9.54058 3.84199 9.00548C3.84199 8.44039 3.85935 8.23519 3.94617 7.79638C4.27765 6.10111 5.2705 4.75942 6.73689 4.02859C7.36827 3.71448 8.01071 3.53453 8.7589 3.46508C8.97672 3.44456 9.75806 3.45877 9.96958 3.48718Z" fill="#010101"/>
<path fill-rule="evenodd" clip-rule="evenodd" d="M32.5589 5.48686L32.5542 10.7447L32.2606 10.3927C32.0996 10.1986 31.7018 9.71871 31.3782 9.32883C31.0531 8.93738 30.5432 8.32335 30.2433 7.96346C29.945 7.60358 29.5172 7.08742 29.2931 6.81908C28.7754 6.19559 27.7241 4.92966 25.6437 2.42622L23.9895 0.434204H22.3889H20.7868L20.7899 9.00841L20.7947 17.5842L22.7078 17.5889L24.6224 17.5921L24.6256 12.3326L24.6303 7.07479L25.8536 8.5475C27.9262 11.0415 28.1235 11.2814 29.6041 13.0619C30.3933 14.0121 31.5219 15.3712 32.1107 16.0799L33.1824 17.3711H34.783H36.382V8.80005V0.229004H34.472H32.5621L32.5589 5.48686Z" fill="#010101"/>
<path fill-rule="evenodd" clip-rule="evenodd" d="M38.1183 0.440884C38.1183 0.448776 38.5681 1.58843 40.8411 7.34034C43.2972 13.5547 44.2885 16.0629 44.5426 16.7085C44.6878 17.0779 44.8267 17.4267 44.8504 17.4867L44.893 17.5924L46.9545 17.5893L49.0176 17.5846L49.5353 16.2744C49.8194 15.5531 50.3435 14.2287 50.697 13.3306C51.0522 12.4325 51.8667 10.3726 52.506 8.75306C53.1468 7.13356 53.775 5.54247 53.9029 5.21731C54.0307 4.89215 54.5059 3.68936 54.9589 2.54497C55.4119 1.40059 55.7813 0.456669 55.7813 0.448776C55.7813 0.440884 54.9778 0.43457 53.7766 0.43457C52.1855 0.43457 51.7688 0.439306 51.7641 0.453512C51.7262 0.565583 47.155 12.9707 47.1392 13.0054L47.1187 13.0544L47.1029 13.0149C47.0903 12.9818 46.1132 10.3426 44.3137 5.47775C42.9941 1.91201 42.74 1.22538 42.6027 0.852863L42.4512 0.442463L40.2839 0.437727C39.0938 0.436149 38.1183 0.437727 38.1183 0.440884Z" fill="#010101"/>
<path fill-rule="evenodd" clip-rule="evenodd" d="M57.5176 9.01351V17.5924H59.4354H61.3532V9.01351V0.43457H59.4354H57.5176V9.01351Z" fill="#010101"/>
<path fill-rule="evenodd" clip-rule="evenodd" d="M64.3839 9.01351V17.594L68.7215 17.5877C72.6787 17.583 73.0812 17.5798 73.3259 17.5561C74.3582 17.452 75.1079 17.2578 75.8435 16.9027C76.4181 16.628 76.7906 16.366 77.2183 15.9366C77.5845 15.5689 77.8276 15.2358 78.0455 14.8017C78.4006 14.0946 78.5758 13.3164 78.5774 12.4467C78.579 11.9479 78.5079 11.5296 78.3501 11.0971C77.9413 9.98584 77.0289 9.0577 75.9587 8.66467L75.7961 8.60627L75.9824 8.51471C76.6769 8.17535 77.2247 7.54712 77.5546 6.71211C77.7455 6.2291 77.8134 5.73189 77.7708 5.13839C77.6935 4.06345 77.3951 3.21266 76.83 2.45816C76.6911 2.2719 76.3628 1.92622 76.1671 1.76048C75.2484 0.982296 73.9493 0.53717 72.3472 0.450355C72.1783 0.440884 70.513 0.43457 68.2243 0.43457H64.3839V9.01351ZM72.0647 3.71935C73.1554 3.82511 73.8073 4.35705 73.9336 5.24099C73.9525 5.38305 73.9525 5.71452 73.9336 5.85659C73.8799 6.22595 73.7473 6.5148 73.52 6.75631C73.228 7.06569 72.846 7.24405 72.2604 7.34192C72.1089 7.36875 71.9226 7.37033 70.15 7.37507L68.2037 7.38138V5.54089V3.70199H70.0474C71.2313 3.70199 71.9542 3.7083 72.0647 3.71935ZM72.7039 10.4736C73.389 10.5415 73.9099 10.7514 74.2587 11.0987C74.6028 11.4412 74.778 11.9416 74.7496 12.494C74.6975 13.4948 74.0772 14.0993 72.9076 14.2887C72.7592 14.3124 72.5145 14.3156 70.4736 14.3203L68.2037 14.3266V12.3914V10.4578H70.3726C71.7443 10.4578 72.6013 10.4641 72.7039 10.4736Z" fill="#010101"/>
<path fill-rule="evenodd" clip-rule="evenodd" d="M80.8314 9.01351V17.5924H87.3031H93.7748V15.9272V14.2619H89.221H84.6671V12.423V10.5841L88.7601 10.5809L92.8514 10.5762L92.8562 8.91407L92.8593 7.25352H88.7632H84.6671V5.50932V3.76512H89.1263H93.5854V2.09985V0.43457H87.2084H80.8314V9.01351Z" fill="#010101"/>
</g>
</g>
<defs>
<clipPath id="clip0_788_1386">
<rect width="94" height="18" fill="white"/>
</clipPath>
<clipPath id="clip1_788_1386">
<rect width="93.7748" height="18" fill="white"/>
</clipPath>
</defs>
</svg>
