<svg width="16" height="16" viewBox="0 0 16 16" fill="none" xmlns="http://www.w3.org/2000/svg">
<g id="notice icon">
<g id="Icon">
<path d="M6.83349 3.66667H4.5335C3.41339 3.66667 2.85334 3.66667 2.42551 3.88466C2.04919 4.0764 1.74323 4.38236 1.55148 4.75869C1.3335 5.18651 1.3335 5.74656 1.3335 6.86667L1.3335 7.66667C1.3335 8.28792 1.3335 8.59855 1.43499 8.84358C1.57032 9.17028 1.82988 9.42985 2.15658 9.56517C2.40161 9.66667 2.71224 9.66667 3.3335 9.66667V12.5C3.3335 12.6548 3.3335 12.7322 3.33992 12.7974C3.40227 13.4304 3.90311 13.9312 4.53614 13.9936C4.60133 14 4.67872 14 4.8335 14C4.98828 14 5.06567 14 5.13085 13.9936C5.76389 13.9312 6.26473 13.4304 6.32708 12.7974C6.3335 12.7322 6.3335 12.6548 6.3335 12.5V9.66667H6.8335C8.01112 9.66667 9.45166 10.2979 10.563 10.9038C11.2114 11.2572 11.5356 11.4339 11.7479 11.4079C11.9448 11.3838 12.0936 11.2954 12.209 11.1341C12.3335 10.9601 12.3335 10.612 12.3335 9.91581V3.41753C12.3335 2.72133 12.3335 2.37324 12.209 2.19926C12.0936 2.03794 11.9448 1.94954 11.7479 1.92542C11.5356 1.89942 11.2114 2.07613 10.563 2.42957C9.45166 3.03541 8.01111 3.66667 6.83349 3.66667Z" fill="#3DBBC6"/>
<path d="M14.6668 5.33334V8M6.83349 3.66667H4.5335C3.41339 3.66667 2.85334 3.66667 2.42551 3.88466C2.04919 4.0764 1.74323 4.38236 1.55148 4.75869C1.3335 5.18651 1.3335 5.74656 1.3335 6.86667L1.3335 7.66667C1.3335 8.28792 1.3335 8.59855 1.43499 8.84358C1.57032 9.17028 1.82988 9.42985 2.15658 9.56517C2.40161 9.66667 2.71224 9.66667 3.3335 9.66667V12.5C3.3335 12.6548 3.3335 12.7322 3.33992 12.7974C3.40227 13.4304 3.90311 13.9312 4.53614 13.9936C4.60133 14 4.67872 14 4.8335 14C4.98828 14 5.06567 14 5.13085 13.9936C5.76389 13.9312 6.26473 13.4304 6.32708 12.7974C6.3335 12.7322 6.3335 12.6548 6.3335 12.5V9.66667H6.8335C8.01112 9.66667 9.45166 10.2979 10.563 10.9038C11.2114 11.2572 11.5356 11.4339 11.7479 11.4079C11.9448 11.3838 12.0936 11.2954 12.209 11.1341C12.3335 10.9601 12.3335 10.612 12.3335 9.91581V3.41753C12.3335 2.72133 12.3335 2.37324 12.209 2.19926C12.0936 2.03794 11.9448 1.94954 11.7479 1.92542C11.5356 1.89942 11.2114 2.07613 10.563 2.42957C9.45166 3.03541 8.01111 3.66667 6.83349 3.66667Z" stroke="#3DBBC6" stroke-width="1.5" stroke-linecap="round" stroke-linejoin="round"/>
</g>
</g>
</svg>
