<svg width="15" height="14" viewBox="0 0 15 14" fill="none" xmlns="http://www.w3.org/2000/svg">
<path id="download" d="M7.65242 10.0126C7.53497 10.0126 7.42575 9.99151 7.32474 9.94932C7.22374 9.90731 7.13105 9.84411 7.04666 9.75973L3.69379 6.40685C3.54913 6.26384 3.4778 6.09635 3.47981 5.90438C3.48201 5.71242 3.55808 5.54055 3.70803 5.38877C3.86858 5.23717 4.04082 5.16311 4.22474 5.16658C4.40885 5.17005 4.5768 5.24767 4.72858 5.39945L6.94557 7.64384V0.712329C6.94557 0.510137 7.01324 0.340912 7.14858 0.204657C7.28374 0.0682184 7.45159 0 7.65214 0C7.85269 0 8.02246 0.0682184 8.16146 0.204657C8.30064 0.340912 8.37022 0.510137 8.37022 0.712329V7.64384L10.6146 5.39945C10.7532 5.2548 10.9179 5.18347 11.1086 5.18548C11.2991 5.18767 11.4746 5.26457 11.6352 5.41616C11.7851 5.56795 11.8584 5.73763 11.8549 5.92521C11.8514 6.11279 11.7738 6.28247 11.622 6.43425L8.26913 9.75973C8.17744 9.84411 8.08109 9.90731 7.98009 9.94932C7.87908 9.99151 7.76986 10.0126 7.65242 10.0126ZM2.06968 14C1.57598 14 1.16018 13.8297 0.822279 13.489C0.48438 13.1484 0.31543 12.7314 0.31543 12.2381V11.294C0.31543 11.0918 0.383101 10.9226 0.518443 10.7863C0.653603 10.6499 0.821457 10.5816 1.022 10.5816C1.22255 10.5816 1.39232 10.6499 1.53132 10.7863C1.6705 10.9226 1.74009 11.0918 1.74009 11.294V12.2381C1.74009 12.3225 1.77525 12.3997 1.84557 12.4699C1.9157 12.5402 1.99296 12.5753 2.07735 12.5753H13.2384C13.3228 12.5753 13.4001 12.5402 13.4702 12.4699C13.5405 12.3997 13.5757 12.3225 13.5757 12.2381V11.294C13.5757 11.0918 13.6433 10.9226 13.7784 10.7863C13.9138 10.6499 14.0817 10.5816 14.2823 10.5816C14.4828 10.5816 14.6526 10.6499 14.7916 10.7863C14.9308 10.9226 15.0004 11.0918 15.0004 11.294V12.2381C15.0004 12.7314 14.83 13.1484 14.4891 13.489C14.1483 13.8297 13.731 14 13.2373 14H2.06968Z" fill="#111111"/>
</svg>
