<svg width="20" height="20" viewBox="0 0 20 20" fill="none" xmlns="http://www.w3.org/2000/svg">
<g id="Group 24">
<path id="Vector" d="M8.34972 8.34972H2.63327C1.73116 8.34972 1 7.61856 1 6.71645V2.63327C1 1.73116 1.73116 1 2.63327 1H6.71645C7.61856 1 8.34972 1.73116 8.34972 2.63327V8.34972Z" fill="#222222" stroke="#222222" stroke-width="2" stroke-miterlimit="10" stroke-linecap="round" stroke-linejoin="round"/>
<path id="Vector_2" d="M17.3327 8.34972H11.6162V2.63327C11.6162 1.73116 12.3474 1 13.2495 1H17.3327C18.2348 1 18.966 1.73116 18.966 2.63327V6.71645C18.966 7.61856 18.2348 8.34972 17.3327 8.34972Z" fill="#222222" stroke="#222222" stroke-width="2" stroke-miterlimit="10" stroke-linecap="round" stroke-linejoin="round"/>
<path id="Vector_3" d="M8.34972 19H2.63327C1.73116 19 1 18.2688 1 17.3667V13.2835C1 12.3814 1.73116 11.6503 2.63327 11.6503H8.34972V19Z" fill="#222222" stroke="#222222" stroke-width="2" stroke-miterlimit="10" stroke-linecap="round" stroke-linejoin="round"/>
<path id="Vector_4" d="M17.3327 19H11.6162V11.6503H17.3327C18.2348 11.6503 18.966 12.3814 18.966 13.2835V17.3667C18.966 18.2688 18.2348 19 17.3327 19Z" fill="#222222" stroke="#222222" stroke-width="2" stroke-miterlimit="10" stroke-linecap="round" stroke-linejoin="round"/>
</g>
</svg>
