<svg width="7" height="8" viewBox="0 0 7 8" fill="none" xmlns="http://www.w3.org/2000/svg">
<path id="arrow_drop_down" d="M6.66489 4.48837L1.26596 7.86047C1.19149 7.90698 1.11082 7.94186 1.02394 7.96512C0.937057 7.98837 0.843972 8 0.744681 8C0.546099 8 0.37234 7.95736 0.223404 7.87209C0.0744681 7.78682 0 7.67442 0 7.53488L0 0.465116C0 0.325581 0.0744681 0.213178 0.223404 0.127907C0.37234 0.0426354 0.546099 0 0.744681 0C0.794326 0 0.968085 0.0465121 1.26596 0.139535L6.66489 3.51163C6.78901 3.58915 6.87589 3.66667 6.92553 3.74419C6.97518 3.82171 7 3.90698 7 4C7 4.09302 6.97518 4.17829 6.92553 4.25581C6.87589 4.33333 6.78901 4.41085 6.66489 4.48837Z" fill="#222222"/>
</svg>
