<svg width="6" height="10" viewBox="0 0 6 10" fill="none" xmlns="http://www.w3.org/2000/svg">
<path id="arrow_drop_down" d="M5.71277 5.61047L1.08511 9.82558C1.02128 9.88372 0.952128 9.92733 0.87766 9.9564C0.803192 9.98547 0.723404 10 0.638298 10C0.468085 10 0.319149 9.94671 0.191489 9.84012C0.0638298 9.73353 0 9.59302 0 9.4186L0 0.581395C0 0.406977 0.0638298 0.266473 0.191489 0.159883C0.319149 0.0532942 0.468085 0 0.638298 0C0.680851 0 0.829787 0.0581398 1.08511 0.174419L5.71277 4.38953C5.81915 4.48643 5.89362 4.58333 5.93617 4.68023C5.97872 4.77713 6 4.88372 6 5C6 5.11628 5.97872 5.22287 5.93617 5.31977C5.89362 5.41667 5.81915 5.51357 5.71277 5.61047Z" fill="white"/>
</svg>
