<svg width="23" height="26" viewBox="0 0 23 26" fill="none" xmlns="http://www.w3.org/2000/svg">
<g id="Group 18">
<path id="Vector" d="M2.82326 20.2862C2.17236 20.2862 1.57053 19.9513 1.23817 19.404C0.828716 18.7215 0.957455 17.8426 1.54545 17.3084L3.20035 15.8044V9.72254C3.20035 5.07564 7.07855 1 11.5 1C15.9215 1 19.7996 5.076 19.7996 9.72254V15.8044L21.4545 17.3084C22.0425 17.8426 22.1713 18.7215 21.7618 19.404C21.4294 19.9509 20.8276 20.2862 20.1767 20.2862H2.82326Z" stroke="#999999" stroke-width="2" stroke-miterlimit="10" stroke-linecap="round" stroke-linejoin="round"/>
<path id="Vector_2" d="M16.09 20.3804C16.09 22.9316 14.0351 25 11.4998 25C8.96494 25 6.90967 22.9316 6.90967 20.3804H16.09Z" stroke="#999999" stroke-width="2" stroke-miterlimit="10" stroke-linecap="round" stroke-linejoin="round"/>
</g>
</svg>
