<svg width="10" height="6" viewBox="0 0 10 6" fill="none" xmlns="http://www.w3.org/2000/svg">
<path id="arrow_drop_down" d="M4.38953 5.71277L0.174419 1.08511C0.116279 1.02128 0.0726744 0.952128 0.0436046 0.87766C0.0145349 0.803192 0 0.723404 0 0.638298C0 0.468085 0.0532946 0.319149 0.159884 0.191489C0.266473 0.0638298 0.406977 0 0.581395 0L9.4186 0C9.59302 0 9.73353 0.0638298 9.84012 0.191489C9.94671 0.319149 10 0.468085 10 0.638298C10 0.680851 9.94186 0.829787 9.82558 1.08511L5.61047 5.71277C5.51357 5.81915 5.41667 5.89362 5.31977 5.93617C5.22287 5.97872 5.11628 6 5 6C4.88372 6 4.77713 5.97872 4.68023 5.93617C4.58333 5.89362 4.48643 5.81915 4.38953 5.71277Z" fill="#111111"/>
</svg>
