<svg width="20" height="20" viewBox="0 0 20 20" fill="none" xmlns="http://www.w3.org/2000/svg">
<g id="Group 75">
<path id="Vector" d="M16.3493 9.99975C16.3493 9.44325 16.2745 8.9055 16.1475 8.388L18.1985 6.89425L16.5882 4.10525L14.2703 5.13425C13.4935 4.3885 12.54 3.82775 11.4775 3.52025L11.2098 1H7.98925L7.72125 3.52025C6.6585 3.82775 5.705 4.3885 4.92825 5.13425L2.61025 4.1055L1 6.89425L3.051 8.388C2.924 8.90525 2.84925 9.44325 2.84925 9.99975C2.84925 10.5562 2.924 11.094 3.051 11.6115L1 13.1052L2.61025 15.8942L4.92825 14.8655C5.705 15.6115 6.6585 16.172 7.72125 16.4798L7.989 19H11.2095L11.4773 16.4798C12.54 16.1723 13.4933 15.6115 14.27 14.8657L16.588 15.8945L18.1982 13.1055L16.1473 11.6117C16.2747 11.094 16.3493 10.5562 16.3493 9.99975ZM9.59925 13.1762C7.845 13.1762 6.42275 11.754 6.42275 9.99975C6.42275 8.2455 7.84475 6.82325 9.59925 6.82325C11.3535 6.82325 12.7758 8.24525 12.7758 9.99975C12.7758 11.754 11.3535 13.1762 9.59925 13.1762Z" fill="#222222" stroke="#222222" stroke-width="2" stroke-miterlimit="10" stroke-linecap="round" stroke-linejoin="round"/>
</g>
</svg>
