<svg width="10" height="6" viewBox="0 0 10 6" fill="none" xmlns="http://www.w3.org/2000/svg">
<path id="arrow_drop_down" d="M5.61047 0.287234L9.82558 4.91489C9.88372 4.97872 9.92733 5.04787 9.9564 5.12234C9.98547 5.19681 10 5.2766 10 5.3617C10 5.53191 9.94671 5.68085 9.84012 5.80851C9.73353 5.93617 9.59302 6 9.4186 6L0.581395 6C0.406977 6 0.266473 5.93617 0.159883 5.80851C0.0532942 5.68085 0 5.53191 0 5.3617C0 5.31915 0.0581398 5.17021 0.174419 4.91489L4.38953 0.287234C4.48643 0.180851 4.58333 0.106382 4.68023 0.0638294C4.77713 0.021276 4.88372 0 5 0C5.11628 0 5.22287 0.021276 5.31977 0.0638294C5.41667 0.106382 5.51357 0.180851 5.61047 0.287234Z" fill="white"/>
</svg>
