<svg width="8" height="8" viewBox="0 0 8 8" fill="none" xmlns="http://www.w3.org/2000/svg">
<path id="add" d="M3.42857 4.57143H0.571429C0.409524 4.57143 0.27381 4.51667 0.164286 4.40714C0.0547619 4.29762 0 4.1619 0 4C0 3.8381 0.0547619 3.70238 0.164286 3.59286C0.27381 3.48333 0.409524 3.42857 0.571429 3.42857H3.42857V0.571429C3.42857 0.409524 3.48333 0.27381 3.59286 0.164286C3.70238 0.0547619 3.8381 0 4 0C4.1619 0 4.29762 0.0547619 4.40714 0.164286C4.51667 0.27381 4.57143 0.409524 4.57143 0.571429V3.42857H7.42857C7.59048 3.42857 7.72619 3.48333 7.83571 3.59286C7.94524 3.70238 8 3.8381 8 4C8 4.1619 7.94524 4.29762 7.83571 4.40714C7.72619 4.51667 7.59048 4.57143 7.42857 4.57143H4.57143V7.42857C4.57143 7.59048 4.51667 7.72619 4.40714 7.83571C4.29762 7.94524 4.1619 8 4 8C3.8381 8 3.70238 7.94524 3.59286 7.83571C3.48333 7.72619 3.42857 7.59048 3.42857 7.42857V4.57143Z" fill="white"/>
</svg>
