<svg width="11" height="8" viewBox="0 0 11 8" fill="none" xmlns="http://www.w3.org/2000/svg">
<path d="M1.5194 3.57896C1.22059 3.2921 0.745816 3.30179 0.45896 3.6006C0.172103 3.89941 0.181793 4.37418 0.480601 4.66104L1.5194 3.57896ZM4 7L3.4806 7.54104C3.77511 7.82377 4.24165 7.81901 4.53033 7.53033L4 7ZM10.5303 1.53033C10.8232 1.23744 10.8232 0.762563 10.5303 0.46967C10.2374 0.176777 9.76256 0.176777 9.46967 0.46967L10.5303 1.53033ZM7 4L6.46967 3.46967L7 4ZM0.480601 4.66104L3.4806 7.54104L4.5194 6.45896L1.5194 3.57896L0.480601 4.66104ZM4.53033 7.53033L7.53033 4.53033L6.46967 3.46967L3.46967 6.46967L4.53033 7.53033ZM7.53033 4.53033L10.5303 1.53033L9.46967 0.46967L6.46967 3.46967L7.53033 4.53033Z" fill="#BF1920"/>
</svg>
