<svg width="16" height="14" viewBox="0 0 16 14" fill="none" xmlns="http://www.w3.org/2000/svg">
<path id="Vector" d="M8.2299 0.385301L9.81811 4.1608C9.90917 4.37744 10.1152 4.52546 10.3518 4.54409L14.4743 4.87085C15.0353 4.91532 15.2627 5.60735 14.8354 5.96947L11.6943 8.62963C11.5141 8.78231 11.4356 9.02159 11.4906 9.24987L12.4501 13.2274C12.5808 13.7687 11.9851 14.1964 11.505 13.9063L7.97557 11.7749C7.77313 11.6525 7.51837 11.6525 7.31593 11.7749L3.78649 13.9063C3.30622 14.1964 2.71074 13.7685 2.8414 13.2274L3.8011 9.24987C3.85616 9.0218 3.77738 8.78231 3.59739 8.62963L0.45632 5.96947C0.0289841 5.60757 0.256417 4.91532 0.817375 4.87085L4.93996 4.54409C5.1765 4.52525 5.38254 4.37744 5.4736 4.1608L7.06182 0.385301C7.2776 -0.128434 8.01369 -0.128434 8.2299 0.385301Z" fill="#DDDDDD"/>
</svg>
