<svg width="15" height="15" viewBox="0 0 15 15" fill="none" xmlns="http://www.w3.org/2000/svg">
<path d="M7.5 8.36826L1.06394 14.804C0.949231 14.9189 0.808457 14.9803 0.641613 14.988C0.474973 14.996 0.326429 14.9347 0.19598 14.804C0.0653267 14.6736 0 14.5289 0 14.37C0 14.2112 0.0653267 14.0665 0.19598 13.9361L6.63174 7.5L0.19598 1.06394C0.0810706 0.949231 0.0197309 0.808456 0.0119612 0.641612C0.00398706 0.474973 0.0653267 0.326428 0.19598 0.195979C0.326429 0.0653253 0.471088 0 0.629958 0C0.788828 0 0.933487 0.0653253 1.06394 0.195979L7.5 6.63174L13.9361 0.195979C14.0508 0.0810692 14.1915 0.0197295 14.3584 0.0119598C14.525 0.00398566 14.6736 0.0653253 14.804 0.195979C14.9347 0.326428 15 0.471088 15 0.629958C15 0.788827 14.9347 0.933488 14.804 1.06394L8.36826 7.5L14.804 13.9361C14.9189 14.0508 14.9803 14.1915 14.988 14.3584C14.996 14.525 14.9347 14.6736 14.804 14.804C14.6736 14.9347 14.5289 15 14.37 15C14.2112 15 14.0665 14.9347 13.9361 14.804L7.5 8.36826Z" fill="#1C1B1F"/>
</svg>
