<svg width="22" height="20" viewBox="0 0 22 20" fill="none" xmlns="http://www.w3.org/2000/svg">
<g id="Group">
<g id="Vector">
<path d="M17.983 7.92141C18.0711 7.9135 18.157 7.89905 18.2483 7.89905C19.5673 7.89905 20.6366 8.79006 20.6366 9.88917V11.7023C20.6366 12.8017 19.5675 13.6924 18.2483 13.6924C18.1572 13.6924 17.983 13.67 17.983 13.67" fill="#222222"/>
<path d="M17.983 7.92141C18.0711 7.9135 18.157 7.89905 18.2483 7.89905C19.5673 7.89905 20.6366 8.79006 20.6366 9.88917V11.7023C20.6366 12.8017 19.5675 13.6924 18.2483 13.6924C18.1572 13.6924 17.983 13.67 17.983 13.67" stroke="#222222" stroke-width="2" stroke-miterlimit="10" stroke-linecap="round" stroke-linejoin="round"/>
</g>
<g id="Vector_2">
<path d="M3.65367 7.92141C3.56558 7.9135 3.47941 7.89905 3.38831 7.89905C2.06939 7.89905 1 8.79006 1 9.88917V11.7023C1 12.8017 2.06911 13.6924 3.38831 13.6924C3.47941 13.6924 3.56558 13.678 3.65367 13.67L4.06195 13.6122" fill="#222222"/>
<path d="M3.65367 7.92141C3.56558 7.9135 3.47941 7.89905 3.38831 7.89905C2.06939 7.89905 1 8.79006 1 9.88917V11.7023C1 12.8017 2.06911 13.6924 3.38831 13.6924C3.47941 13.6924 3.56558 13.678 3.65367 13.67L4.06195 13.6122" stroke="#222222" stroke-width="2" stroke-miterlimit="10" stroke-linecap="round" stroke-linejoin="round"/>
</g>
<path id="Vector_3" d="M14.2678 17.6732C14.2678 18.406 13.6738 19 12.941 19H9.22613C8.4933 19 7.89929 18.406 7.89929 17.6732C7.89929 16.9403 8.4933 16.3463 9.22613 16.3463H12.941C13.6741 16.3463 14.2678 16.9403 14.2678 17.6732Z" fill="#222222" stroke="#222222" stroke-width="2" stroke-miterlimit="10" stroke-linecap="round" stroke-linejoin="round"/>
<path id="Vector_4" d="M8.20831 16.8241C5.63345 16.4587 3.65369 14.2455 3.65369 11.57V6.30708C3.65369 3.37603 6.02946 1 8.96105 1H12.6759C15.6072 1 17.9833 3.3763 17.9833 6.30708V13.6929" stroke="#222222" stroke-width="2" stroke-miterlimit="10" stroke-linecap="round" stroke-linejoin="round"/>
</g>
</svg>
