<svg width="132" height="32" viewBox="0 0 132 32" fill="none" xmlns="http://www.w3.org/2000/svg">
<g id="logo" clip-path="url(#clip0_119_1379)">
<g id="Group">
<g id="Group_2">
<g id="Group_3">
<path id="Vector" d="M88.439 10.0428L86.8105 12.8007H80.9374L80.3188 15.6585H86.5284L84.9245 18.2964H79.7484L79.1262 21.1736H86.2479L84.072 23.9121H75.4385L78.4402 10.0434L88.439 10.0428Z" fill="#111111"/>
</g>
<g id="Group_4">
<path id="Vector_2" d="M73.4556 10.0428L71.8271 12.8007H65.954L65.3354 15.6585H71.545L69.9411 18.2964H64.765L64.1428 21.1736H71.2645L69.0886 23.9121H60.4551L63.4568 10.0434L73.4556 10.0428Z" fill="#111111"/>
</g>
<g id="Group_5">
<g id="Group_6">
<path id="Vector_3" d="M103.444 11.2847C102.65 10.4563 101.191 10.0435 99.0611 10.0435H92.9666L93.5983 12.7024H98.4441C99.463 12.7024 100.178 12.8704 100.588 13.2079C100.997 13.5454 101.116 14.1137 100.943 14.9144C100.77 15.7151 100.453 16.3221 99.991 16.7386C99.5315 17.1552 98.7858 17.3635 97.7539 17.3635H92.5763L91.1597 23.9121H94.2545L95.0918 20.0423H96.9354C98.9857 20.0423 100.596 19.6467 101.767 18.8523C102.937 18.0579 103.709 16.8051 104.079 15.0934C104.45 13.3801 104.239 12.111 103.444 11.2847Z" fill="#111111"/>
</g>
</g>
<g id="Group_7">
<path id="Vector_4" d="M106.977 23.9121L109.979 10.0435H113.074L110.67 21.1533H116.582L114.658 23.9127H106.977V23.9121Z" fill="#111111"/>
</g>
<g id="Group_8">
<path id="Vector_5" d="M124.197 23.9121H121.103L122.289 18.4357L119.303 10.0435H122.657L124.534 15.2017L128.646 10.0435H132L125.382 18.4352L124.197 23.9121Z" fill="#111111"/>
</g>
<g id="Group_9">
<path id="Vector_6" d="M55.8925 11.8577C54.8307 10.6484 53.0645 10.0429 50.5914 10.0429H45.6911C45.6911 10.0429 42.7868 10.7755 39.2466 7.96851C39.2466 7.96851 39.2591 12.2057 45.1066 12.7421H49.9273C51.5014 12.7421 52.5883 13.1069 53.1917 13.8416C53.7924 14.5763 53.9458 15.624 53.6501 16.9867C53.3544 18.3493 52.7516 19.386 51.8363 20.1014C50.92 20.8167 49.7562 21.1736 48.3401 21.1736H43.2823L42.6894 23.9121H47.4316C50.0764 23.9121 52.1801 23.2841 53.7406 22.0277C55.3027 20.7702 56.3169 19.0631 56.7831 16.9082C57.2489 14.7527 56.9527 13.0687 55.8925 11.8577Z" fill="#111111"/>
</g>
</g>
<g id="Group_10">
<path id="Vector_7" d="M32.2092 0.0566406H25.0996H17.9899H10.4381H2.88623C1.77106 0.0566406 0.866788 0.663153 0.383252 1.50986C-0.100284 2.35657 -0.163081 3.44348 0.404184 4.40375L8.19152 17.5995L15.9788 30.7946C16.4305 31.5602 17.2102 31.9428 17.9899 31.9428C18.7696 31.9428 19.5488 31.5597 20.001 30.7946L27.5638 17.9799L35.1261 5.16569C35.7923 4.03639 35.7185 2.75952 35.1507 1.76419C34.5829 0.769385 33.5201 0.0566406 32.2092 0.0566406ZM13.9767 20.2908C13.6135 20.014 13.4487 19.6519 13.4042 19.3143C13.3597 18.9768 13.4351 18.6633 13.5523 18.4833C13.6616 18.3153 13.7804 18.1871 13.9495 18.1196C14.1185 18.0521 14.3367 18.0453 14.6449 18.1207C14.8904 18.1809 15.2692 18.3792 15.6868 18.6335C16.1039 18.8878 16.5597 19.1976 16.9595 19.4802V14.7024V9.92464C16.7811 10.0094 16.5864 10.046 16.3959 10.0319C16.2049 10.0173 16.0181 9.95237 15.8559 9.83306L14.7438 9.01932L13.6318 8.20453L12.3795 9.03345L11.1273 9.86237C11.0352 9.92359 10.9368 9.9686 10.8363 9.99843C10.7358 10.0283 10.6322 10.0429 10.5291 10.0429C10.3533 10.0429 10.179 10 10.0226 9.91836C9.8661 9.8362 9.72794 9.71479 9.62328 9.55676C9.45792 9.30714 9.40977 9.01356 9.46524 8.74144C9.52071 8.46932 9.6798 8.21814 9.92994 8.05277L11.4972 7.01558L13.0646 5.97838C13.2535 5.85279 13.4717 5.79313 13.6889 5.79836C13.9055 5.8036 14.1211 5.87372 14.3048 6.00769L15.4163 6.82195L16.5278 7.6357L17.7801 6.8073L19.0323 5.97891C19.2213 5.85331 19.4395 5.79365 19.6566 5.79889C19.8733 5.80412 20.0889 5.87424 20.2726 6.00821L21.3846 6.82248L22.4966 7.63622L23.7489 6.80782L25.0012 5.97943C25.2513 5.81406 25.5444 5.7654 25.8165 5.82087C26.0886 5.87634 26.3398 6.03542 26.5052 6.28556C26.6705 6.53518 26.7187 6.82876 26.6637 7.10088C26.6083 7.373 26.4492 7.62418 26.1996 7.78955L24.6323 8.82674L23.0649 9.86394C22.8755 9.98901 22.6573 10.0487 22.4406 10.044C22.224 10.0387 22.0084 9.96912 21.8252 9.83463L20.7132 9.02089L19.6012 8.20662L19.2867 8.41438L18.9727 8.62213V14.1221V19.6226C19.383 19.3285 19.8775 18.9857 20.3359 18.7005C20.7943 18.4153 21.2172 18.1877 21.4835 18.1222C21.7917 18.0469 22.0105 18.0537 22.179 18.1212C22.348 18.1887 22.4668 18.3169 22.5762 18.4849C22.6929 18.6644 22.7688 18.9779 22.7243 19.3159C22.6798 19.6534 22.515 20.0156 22.1518 20.2924C22.1518 20.2924 21.5463 20.6639 20.8011 21.2935C20.0559 21.923 19.1715 22.8111 18.6142 23.843C18.4808 24.09 18.273 24.213 18.0647 24.213C17.8565 24.213 17.6487 24.0895 17.5153 23.843C16.958 22.8106 16.0736 21.923 15.3284 21.2935C14.5821 20.6624 13.9767 20.2908 13.9767 20.2908Z" fill="#111111"/>
</g>
</g>
</g>
<defs>
<clipPath id="clip0_119_1379">
<rect width="132" height="31.8867" fill="white" transform="translate(0 0.0566406)"/>
</clipPath>
</defs>
</svg>
