<svg width="178" height="32" viewBox="0 0 178 32" fill="none" xmlns="http://www.w3.org/2000/svg">
<g id="Frame" clip-path="url(#clip0_2_148)">
<g id="Group">
<g id="Group_2">
<path id="Vector" d="M94.3811 4.73096L91.2691 10.001H80.0461L78.8641 15.462H90.7301L87.6651 20.503H77.7741L76.5851 26.001H90.1941L86.0361 31.233H69.5381L75.2741 4.73096H94.3811Z" fill="#111111"/>
</g>
<g id="Group_3">
<path id="Vector_2" d="M65.749 4.73096L62.637 10.001H51.415L50.233 15.462H62.099L59.034 20.503H49.143L47.954 26.001H61.563L57.405 31.233H40.906L46.642 4.73096H65.749Z" fill="#111111"/>
</g>
<g id="Group_4">
<g id="Group_5">
<path id="Vector_3" d="M123.054 7.10296C121.537 5.51996 118.748 4.73096 114.679 4.73096H103.033L104.24 9.81196H113.5C115.447 9.81196 116.814 10.133 117.597 10.778C118.379 11.423 118.606 12.509 118.276 14.039C117.945 15.569 117.338 16.729 116.456 17.525C115.578 18.321 114.153 18.719 112.181 18.719H102.287L99.5791 31.233H105.493L107.093 23.838H110.616C114.534 23.838 117.612 23.082 119.849 21.564C122.084 20.046 123.559 17.652 124.267 14.381C124.976 11.108 124.574 8.68296 123.054 7.10296Z" fill="#111111"/>
</g>
</g>
<g id="Group_6">
<path id="Vector_4" d="M129.806 31.233L135.542 4.73096H141.457L136.863 25.961H148.161L144.485 31.234L129.806 31.233Z" fill="#111111"/>
</g>
<g id="Group_7">
<path id="Vector_5" d="M162.711 31.233H156.8L159.065 20.768L153.36 4.73096H159.768L163.356 14.588L171.214 4.73096H177.622L164.975 20.768L162.711 31.233Z" fill="#111111"/>
</g>
<g id="Group_8">
<path id="Vector_6" d="M32.187 8.19897C30.158 5.88797 26.783 4.73097 22.056 4.73097H12.692C12.692 4.73097 7.14195 6.13097 0.376953 0.766968C0.376953 0.766968 0.400953 8.86397 11.575 9.88897H20.787C23.795 9.88897 25.871 10.586 27.025 11.99C28.173 13.394 28.466 15.396 27.901 18C27.336 20.604 26.184 22.585 24.435 23.952C22.684 25.319 20.46 26.001 17.754 26.001H8.08995L6.95695 31.233H16.019C21.073 31.233 25.093 30.033 28.075 27.633C31.06 25.23 32.997 21.968 33.889 17.85C34.779 13.731 34.213 10.513 32.187 8.19897Z" fill="#111111"/>
</g>
</g>
</g>
<defs>
<clipPath id="clip0_2_148">
<rect width="177.244" height="30.466" fill="white" transform="translate(0.37793 0.766968)"/>
</clipPath>
</defs>
</svg>
